<?xml version="1.0" standalone="no"?>
<!DOCTYPE svg PUBLIC "-//W3C//DTD SVG 20010904//EN"
 "http://www.w3.org/TR/2001/REC-SVG-20010904/DTD/svg10.dtd">
<svg version="1.0" xmlns="http://www.w3.org/2000/svg"
 width="300.000000pt" height="300.000000pt" viewBox="0 0 300.000000 300.000000"
 preserveAspectRatio="xMidYMid meet">
<metadata>
Created by potrace 1.11, written by Peter Selinger 2001-2013
</metadata>
<g transform="translate(0.000000,300.000000) scale(0.100000,-0.100000)"
fill="#000000" stroke="none">
<path d="M1422 2925 l-73 -74 0 -968 c0 -532 0 -981 1 -997 0 -30 0 -29 58 30
98 99 83 98 168 13 l74 -73 0 995 0 995 -58 60 c-103 105 -86 103 -170 19z
m112 -1605 c30 -69 34 -84 43 -142 4 -30 1 -41 -20 -62 -53 -53 -139 -19 -139
56 0 29 20 89 63 195 16 39 18 37 53 -47z"/>
<path d="M1065 2569 l-140 -139 -1 -994 c0 -897 1 -994 15 -986 9 5 74 67 144
138 l128 128 0 993 c0 546 -1 994 -3 996 -2 2 -66 -59 -143 -136z"/>
<path d="M1786 1714 l0 -995 142 -142 142 -142 0 100 c1 126 1 1620 0 1777 l0
117 -140 140 c-77 78 -141 141 -143 141 -1 0 -2 -448 -1 -996z"/>
<path d="M637 2142 l-137 -137 0 -993 c0 -545 2 -992 5 -992 3 0 67 61 142
136 l138 136 1 989 c0 545 -2 992 -6 994 -3 2 -68 -58 -143 -133z"/>
<path d="M2210 1287 l0 -992 139 -139 c76 -76 140 -134 143 -130 2 5 4 452 4
994 l-1 985 -138 138 c-75 75 -139 137 -142 137 -3 0 -5 -447 -5 -993z"/>
</g>
</svg>
