<?xml version="1.0" encoding="utf-8"?><svg xmlns="http://www.w3.org/2000/svg" xmlns:xlink="http://www.w3.org/1999/xlink"><symbol fill="none" viewBox="0 0 278 278" id="Icon1" xmlns="http://www.w3.org/2000/svg"><path d="M139 271c72.902 0 132-59.098 132-132S211.902 7 139 7 7 66.098 7 139s59.098 132 132 132z" stroke="url(#paint0_linear)" stroke-width="14" stroke-miterlimit="10"/><path d="M36.7 204.5h204M16.3 141.8c1-1 162.4 0 162.4 0v60.3m-63-61.3V80.5H30m15.7 62.2v61m70 2v50.5m64.5-138c18.115 0 32.8-14.685 32.8-32.8 0-18.115-14.685-32.8-32.8-32.8-18.115 0-32.8 14.685-32.8 32.8 0 18.115 14.685 32.8 32.8 32.8z" stroke="#F6921E" stroke-width="4" stroke-miterlimit="10" stroke-linecap="round" stroke-linejoin="round"/><path d="M194.1 64.4l-13.9 21V69.3m-.3-16.9v-6.7m7.6-6.4h-14.8v5.9h14.8v-5.9zm-27 18.4l-2.5-3.5m-.303-8.753l-8.478 6.362 3.122 4.16 8.477-6.363-3.121-4.159z" stroke="#F6921E" stroke-width="4" stroke-miterlimit="10" stroke-linecap="round" stroke-linejoin="round"/><path d="M262 139c0 67.931-55.069 123-123 123S16 206.931 16 139 71.069 16 139 16s123 55.069 123 123z" stroke="#CCC" stroke-width="4" stroke-miterlimit="10"/></symbol><symbol fill="none" viewBox="0 0 274 274" id="Icon2" xmlns="http://www.w3.org/2000/svg"><path d="M163.9 19l.1 234m2-115h14.6l3.5-15H198l3.5 15H219V48m0 90v86" stroke="#F6921E" stroke-width="4" stroke-miterlimit="10" stroke-linecap="round" stroke-linejoin="round"/><path d="M112 18v35l-10 10 10 10v30l-10 10 10 10v30l-10 10 10 10v30l-10 10 10 10v34M17 113h84M41 63h61M17 163h85m-61 50h61" stroke="#B0B0B0" stroke-width="4" stroke-miterlimit="10"/><path d="M137 267c71.797 0 130-58.203 130-130S208.797 7 137 7 7 65.203 7 137s58.203 130 130 130z" stroke="url(#paint0_linear)" stroke-width="14" stroke-miterlimit="10"/><path d="M258 137c0 66.826-54.174 121-121 121S16 203.826 16 137 70.174 16 137 16s121 54.174 121 121z" stroke="#CCC" stroke-width="4" stroke-miterlimit="10"/></symbol><symbol fill="none" viewBox="0 0 274 274" id="Icon3" xmlns="http://www.w3.org/2000/svg"><path d="M137 267c71.797 0 130-58.203 130-130S208.797 7 137 7 7 65.203 7 137s58.203 130 130 130z" stroke="url(#paint0_linear)" stroke-width="14" stroke-miterlimit="10"/><path d="M164.9 19l.1 235m2-116h14.6l3.5-14.833H199L202.5 138H220V49m0 89v85" stroke="#F6921E" stroke-width="4" stroke-miterlimit="10" stroke-linecap="round" stroke-linejoin="round"/><path d="M73 71.6H53v33.6h20V71.6zm0-.2l20-15v64L73 106m20-3.2c3.8-3.2 6.3-8.4 6.3-14.2 0-5.8-2.5-11.1-6.3-14.2m30.1-25.1c9.5 10.2 15.4 24 15.4 39 0 15.1-5.8 28.8-15.4 39" stroke="#B0B0B0" stroke-width="4" stroke-miterlimit="10" stroke-linecap="round" stroke-linejoin="round"/><path d="M114.7 55c8.5 8.6 13.8 20.4 13.8 33.4s-5.3 24.8-13.8 33.4" stroke="#000" stroke-width="4" stroke-miterlimit="10" stroke-linecap="round" stroke-linejoin="round"/><path d="M114.7 121.8c8.5-8.6 13.8-20.4 13.8-33.4s-5.3-24.8-13.8-33.4" stroke="#B0B0B0" stroke-width="4" stroke-miterlimit="10" stroke-linecap="round" stroke-linejoin="round"/><path d="M106.3 60.6c7.5 6.9 12.2 16.7 12.2 27.7s-4.7 20.9-12.2 27.7" stroke="#000" stroke-width="4" stroke-miterlimit="10" stroke-linecap="round" stroke-linejoin="round"/><path d="M106.3 116.1c7.5-6.9 12.2-16.7 12.2-27.7s-4.7-20.9-12.2-27.7" stroke="#B0B0B0" stroke-width="4" stroke-miterlimit="10" stroke-linecap="round" stroke-linejoin="round"/><path d="M97.8 66.4c6.6 5 10.9 13 10.9 22s-4.3 16.9-10.9 22" stroke="#B0B0B0" stroke-width="4" stroke-miterlimit="10" stroke-linecap="round" stroke-linejoin="round"/><path d="M70 162v36m0 10a4 4 0 1 0 0-8 4 4 0 0 0 0 8zm6-25h6m-6-7.3h6m-6-7.2h6m-6-7.3h6m-6-7.2h6m18-.2c0-1.5-1.1-2.8-2.4-2.8h-3.1c-1.4 0-2.4 1.2-2.4 2.8v8.3c0 1.5 1.1 2.8 2.4 2.8h3.1c1.4 0 2.4-1.2 2.4-2.8m10.9-10.1a3 3 0 1 0 0-6 3 3 0 0 0 0 6zM92 176.6l.6.4c2.3 1.6 5.2 1.6 7.5 0l1.3-.9c2.3-1.6 5.2-1.6 7.5 0l1.3.9c2.3 1.6 5.2 1.6 7.5 0l1.3-.9c2.3-1.6 5.2-1.6 7.5 0l1.3.9c2.3 1.6 5.2 1.6 7.5 0l.6-.4m-43.9 10l.6.4c2.3 1.6 5.2 1.6 7.5 0l1.3-.9c2.3-1.6 5.2-1.6 7.5 0l1.3.9c2.3 1.6 5.2 1.6 7.5 0l1.3-.9c2.3-1.6 5.2-1.6 7.5 0l1.3.9c2.3 1.6 5.2 1.6 7.5 0l.6-.4m-43.9 10l.6.4c2.3 1.6 5.2 1.6 7.5 0l1.3-.9c2.3-1.6 5.2-1.6 7.5 0l1.3.9c2.3 1.6 5.2 1.6 7.5 0l1.3-.9c2.3-1.6 5.2-1.6 7.5 0l1.3.9c2.3 1.6 5.2 1.6 7.5 0l.6-.4" stroke="#B0B0B0" stroke-width="4" stroke-miterlimit="10" stroke-linecap="round"/><path d="M76 190.3V151c0-3.3-2.7-6-6-6s-6 2.7-6 6v39.3c-5.3 2.3-9 7.6-9 13.7 0 8.3 6.7 15 15 15s15-6.7 15-15c0-6.1-3.7-11.4-9-13.7z" stroke="#B0B0B0" stroke-width="4" stroke-miterlimit="10" stroke-linecap="round"/><path d="M258 137c0 66.826-54.174 121-121 121S16 203.826 16 137 70.174 16 137 16s121 54.174 121 121z" stroke="#CCC" stroke-width="4" stroke-miterlimit="10"/></symbol><symbol fill="none" viewBox="0 0 274 274" id="Icon4" xmlns="http://www.w3.org/2000/svg"><path d="M137 267c71.797 0 130-58.203 130-130S208.797 7 137 7 7 65.203 7 137s58.203 130 130 130z" stroke="url(#da)" stroke-width="14" stroke-miterlimit="10"/><path d="M220 54H54v166h166V54z" stroke="#F6921E" stroke-width="4" stroke-miterlimit="10" stroke-linejoin="round"/><path d="M209.259 64.741H64.741V209.26H209.26V64.741z" stroke="#F6921E" stroke-width="4" stroke-miterlimit="10" stroke-linejoin="round"/><path d="M182.5 177.5v5h-5" stroke="#B0B0B0" stroke-width="4" stroke-linecap="round" stroke-linejoin="round"/><path d="M168.5 182.5H101" stroke="#B0B0B0" stroke-width="4" stroke-linecap="round" stroke-linejoin="round" stroke-dasharray="9 9"/><path d="M96.5 182.5h-5v-5" stroke="#B0B0B0" stroke-width="4" stroke-linecap="round" stroke-linejoin="round"/><path d="M91.5 168.5V101" stroke="#B0B0B0" stroke-width="4" stroke-linecap="round" stroke-linejoin="round" stroke-dasharray="9 9"/><path d="M91.5 96.5v-5h5" stroke="#B0B0B0" stroke-width="4" stroke-linecap="round" stroke-linejoin="round"/><path d="M105.5 91.5H173" stroke="#B0B0B0" stroke-width="4" stroke-linecap="round" stroke-linejoin="round" stroke-dasharray="9 9"/><path d="M177.5 91.5h5v5" stroke="#B0B0B0" stroke-width="4" stroke-linecap="round" stroke-linejoin="round"/><path d="M182.5 105.5V173" stroke="#B0B0B0" stroke-width="4" stroke-linecap="round" stroke-linejoin="round" stroke-dasharray="9 9"/><path d="M190 74h10v10m-18 8l18-18M84 74H74v10m18 8L74 74m116 126h10v-10m-18-8l18 18m-116 0H74v-10m18-8l-18 18" stroke="#F6921E" stroke-width="4" stroke-miterlimit="10" stroke-linecap="round" stroke-linejoin="round"/><path d="M258 137c0 66.826-54.174 121-121 121S16 203.826 16 137 70.174 16 137 16s121 54.174 121 121z" stroke="#CCC" stroke-width="4" stroke-miterlimit="10"/><defs><linearGradient id="da" x1="137" y1="14" x2="137" y2="260" gradientUnits="userSpaceOnUse"><stop stop-color="#E5E5E5"/><stop offset="1" stop-color="#F0F0F0" stop-opacity="0"/></linearGradient></defs></symbol><symbol fill="none" viewBox="0 0 274 274" id="Icon5" xmlns="http://www.w3.org/2000/svg"><path d="M137 267c71.797 0 130-58.203 130-130S208.797 7 137 7 7 65.203 7 137s58.203 130 130 130z" stroke="url(#paint0_linear)" stroke-width="14" stroke-miterlimit="10"/><path d="M72 238V68.66h42L120.8 34h32.9l6.3 34.66h42V238" stroke="#F6921E" stroke-width="4" stroke-miterlimit="10" stroke-linecap="round" stroke-linejoin="round"/><path d="M258 137c0 66.826-54.174 121-121 121S16 203.826 16 137 70.174 16 137 16s121 54.174 121 121z" stroke="#CCC" stroke-width="4" stroke-miterlimit="10"/><path d="M137.2 78.2v149m-.3-150c-23.4 10.4-39.8 33.9-39.8 61.2 0 27.3 16.3 50.8 39.8 61.2m.3-99.4s-9-5-18.5-10.4m18.5 30.4s-18-10.1-30.1-16.9m30.1 36.9s-25.5-14.3-36.3-20.3m36.3 40.3s-33.2-18.6-39.9-22.4m39.9 42.4s-25.4-14.3-36.2-20.3m36.4-82.7c23.5 10.4 39.8 33.9 39.8 61.2 0 27.3-16.3 50.8-39.8 61.2m-.2-99.4s9-5 18.5-10.4m-18.5 30.4s18-10.1 30.1-16.9m-30.1 36.9s25.5-14.3 36.3-20.3m-36.3 40.3s33.2-18.6 39.9-22.4m-39.9 42.4s25.4-14.3 36.2-20.3" stroke="#B0B0B0" stroke-width="4" stroke-miterlimit="10" stroke-linecap="round" stroke-linejoin="round"/></symbol><symbol fill="none" viewBox="0 0 274 274" id="Icon6" xmlns="http://www.w3.org/2000/svg"><path d="M137 267c71.797 0 130-58.203 130-130S208.797 7 137 7 7 65.203 7 137s58.203 130 130 130z" stroke="url(#paint0_linear)" stroke-width="14" stroke-miterlimit="10"/><path d="M137 121c24.024 0 43.5-19.476 43.5-43.5S161.024 34 137 34 93.5 53.476 93.5 77.5 112.976 121 137 121z" stroke="#F6921E" stroke-width="4" stroke-miterlimit="10" stroke-linecap="round" stroke-linejoin="round"/><path d="M136.6 113.8c20.048 0 36.3-16.252 36.3-36.3s-16.252-36.3-36.3-36.3-36.3 16.252-36.3 36.3 16.252 36.3 36.3 36.3z" stroke="#F6921E" stroke-width="4" stroke-miterlimit="10" stroke-linecap="round" stroke-linejoin="round"/><path d="M70 240h35v-13h9c4.9 0 3 4 8.4 4H167c15.2 0 11.7-10.8 11.1-13 3.8-2.3 5.5-11.1 3-14 2-1 5.4-9.9 2-14 3.2-3.2 4.1-7.7 2-10.8-1.4-2-4-3.3-8-3.2h-29c.9-5.1 2.8-8.5 3-14 .2-7.5-2.3-13.8-4.7-16.6-1.2-1.4-3.8-5.3-8.3-4.4-5.7 1.2-4.4 5-4 8 1.8 14.1-3.3 17.3-8 24-4.3 6.1-8.2 11-12 11h-9v-6H22m83 4v46.3" stroke="#B0B0B0" stroke-width="4" stroke-miterlimit="10" stroke-linecap="round" stroke-linejoin="round"/><path d="M161 176s-4.9 1.5-5 7c-.1 5.5 5 7 5 7h22m-25 14h23m-24 0s-4 1.3-4 7c0 3.1 2.1 7 4 7h21m-21 0s-4.1.8-4 7c.1 5.2 5 6 5 6m4-41h-4s-4 1.9-4 7c0 3.4 1.7 7 6 7m-34 2.2s11.3 5 16.9-4.5c4.5-7.4 2.7-18.7 2.7-18.7" stroke="#B0B0B0" stroke-width="4" stroke-miterlimit="10" stroke-linecap="round" stroke-linejoin="round"/><path d="M126 87.4s-.1 8.2 11.1 8.2 11.9-4.6 11.9-9c0-3.7-3.1-6.5-11.9-9.6-6.6-2.3-11.1-5.4-11.1-9.6 0-3 .2-8.9 11.1-8.9 11.2 0 11.1 8.2 11.1 8.2M134 51v52m7-52v52" stroke="#F6921E" stroke-width="4" stroke-miterlimit="10" stroke-linecap="round" stroke-linejoin="round"/><path d="M93 178v62" stroke="#B0B0B0" stroke-width="4" stroke-miterlimit="10" stroke-linecap="round" stroke-linejoin="round"/><path d="M258 137c0 66.826-54.174 121-121 121S16 203.826 16 137 70.174 16 137 16s121 54.174 121 121z" stroke="#CCC" stroke-width="4" stroke-miterlimit="10"/></symbol><symbol viewBox="0 0 60 60" id="close1" xmlns="http://www.w3.org/2000/svg"><path fill="#38454f" d="M7 8.5h46v44H7z"/><path fill="none" stroke="#9dcb3b" stroke-width="2" stroke-linecap="round" stroke-miterlimit="10" d="M37.778 22.722L22.222 38.278m15.556 0L22.222 22.722"/></symbol><symbol fill="none" viewBox="0 0 39 57" id="dot" xmlns="http://www.w3.org/2000/svg"><path d="M19.5 0C8.748 0 0 8.678 0 19.345 0 23.63 2.544 30.15 8.006 39.86a220.057 220.057 0 0 0 7.593 12.457l2.681 4.032c.27.406.729.651 1.22.651s.95-.245 1.22-.651l2.68-4.032c.156-.233 3.839-5.78 7.594-12.457C36.456 30.15 39 23.63 39 19.345 39 8.678 30.252 0 19.5 0zm8.943 38.447a214.501 214.501 0 0 1-7.481 12.273l-1.462 2.2-1.462-2.198c-.153-.231-3.806-5.741-7.48-12.274C5.49 29.44 2.921 23.013 2.921 19.345c0-9.069 7.437-16.446 16.578-16.446 9.141 0 16.578 7.377 16.578 16.446 0 3.669-2.569 10.096-7.635 19.102z" fill="#9DCB3B"/><path d="M19.5 8.499c-5.962 0-10.812 4.812-10.812 10.726 0 5.914 4.85 10.725 10.812 10.725s10.812-4.811 10.812-10.725S25.462 8.499 19.5 8.499zm0 18.552c-4.35 0-7.89-3.51-7.89-7.826s3.54-7.827 7.89-7.827 7.89 3.51 7.89 7.827c0 4.315-3.54 7.826-7.89 7.826z" fill="#9DCB3B"/></symbol><symbol viewBox="0 0 129 129" id="left-arrow" xmlns="http://www.w3.org/2000/svg"><path d="M88.6 121.3c.8.8 1.8 1.2 2.9 1.2s2.1-.4 2.9-1.2c1.6-1.6 1.6-4.2 0-5.8l-51-51 51-51c1.6-1.6 1.6-4.2 0-5.8s-4.2-1.6-5.8 0l-54 53.9c-1.6 1.6-1.6 4.2 0 5.8l54 53.9z"/></symbol><symbol fill="none" viewBox="0 0 390 102" id="logo" xmlns="http://www.w3.org/2000/svg"><path d="M0 99.705l9.527-9.52v-66.47L0 33.235v66.47z" fill="#fff"/><path d="M14.12 85.595l9.612-9.52V9.52l-9.612 9.605v66.47z" fill="#9DCB3B"/><path d="M56.99 90.185l9.527 9.52v-66.47L56.99 23.63v66.555z" fill="#fff"/><path d="M42.87 76.075l9.527 9.52v-66.47L42.87 9.52v66.555z" fill="#9DCB3B"/><path d="M33.258 0L28.24 5.015v66.47l5.018-5.015 5.019 5.015V5.015L33.258 0zm0 63.75a2.686 2.686 0 0 1-2.722-2.72c0-2.38 2.722-7.735 2.722-7.735s2.722 5.44 2.722 7.735c0 1.53-1.19 2.72-2.722 2.72z" fill="#F69328"/><path d="M114.916 99.705v-14.11h-5.359v14.11h-1.956v-15.98h9.271v15.98h-1.956zm48.739-5.185c0 3.485-.765 5.355-5.103 5.355s-5.104-1.87-5.104-5.355v-5.61c0-3.485.766-5.355 5.104-5.355s5.103 1.87 5.103 5.355v5.61zm-1.956-5.61c0-2.55-.17-3.57-3.147-3.57s-3.148 1.02-3.148 3.57v5.61c0 2.55.171 3.485 3.148 3.485 2.977 0 3.147-1.02 3.147-3.485v-5.61zm38.447 8.925c1.616-1.36 1.786-3.57 1.871-5.61l.341-8.5h7.655v14.11h1.361V102h-1.871v-2.295h-8.421V102h-1.872v-4.165h.936zm7.826 0v-12.24h-3.828l-.17 6.63c0 1.955-.255 3.995-1.531 5.61h5.529zm39.467 1.955V83.81h1.957v15.98h-1.957zm37.852-1.87c2.977.17 2.807-2.635 2.892-5.865l.085-8.33h8.166v15.98h-1.956v-14.11h-4.338l-.085 6.46c0 4.675-.085 7.905-4.764 7.735v-1.87zm47.038 0c2.977.17 2.807-2.635 2.892-5.865l.085-8.33h8.166v15.98h-2.041v-14.11h-4.338l-.085 6.46c0 4.675-.085 7.905-4.764 7.735v-1.87h.085zm47.804-9.775c0-3.23 1.701-4.335 4.508-4.335h4.253v15.98h-1.956v-5.95h-1.786l-3.233 5.95h-2.296l3.487-6.035c-2.381-.51-2.977-2.295-2.977-4.505v-1.105zm4.508-2.465c-1.701.085-2.551.255-2.551 2.465v1.02c0 2.21.85 2.72 2.551 2.72h2.297v-6.29h-2.297v.085z" fill="#9DCB3B"/><path d="M127.42 40.375h-12.844v33.83h-7.06V33.66h19.904v6.715zm11.908 33.915h-7.145V33.83h7.145v40.46zm32.833 0h-7.06V40.375h-12.333V74.29h-7.145V33.745h26.538V74.29zm32.748-12.495c0 8.84-4.082 12.58-13.524 12.58s-13.269-3.74-13.269-12.07V45.9c0-8.585 3.657-12.07 13.269-12.07s13.524 3.57 13.524 12.58h-7.145c0-3.91-.935-6.12-6.464-6.12-5.189 0-6.124 2.21-6.124 6.035V62.05c0 3.825 1.02 6.035 6.124 6.035 5.189 0 6.464-2.21 6.464-6.205h7.145v-.085zm4.934.765V45.475c0-8.585 3.657-12.07 13.269-12.07s13.525 3.485 13.525 12.07V62.56c0 8.33-4.083 12.07-13.525 12.07-9.441 0-13.269-3.74-13.269-12.07zm19.649-.34V45.815c0-3.655-.936-6.035-6.465-6.035-5.188 0-6.124 2.38-6.124 6.035V62.22c0 3.825 1.021 6.035 6.124 6.035 5.104 0 6.465-2.21 6.465-6.035zM269.3 74.29h-7.06V40.375h-12.334V74.29h-7.145V33.745H269.3V74.29zm34.194 0h-7.145V40.375h-9.357l-.34 15.13c-.255 11.305-1.531 19.975-13.184 18.785l.255-7.055c6.209.51 5.784-7.055 5.954-11.73l.341-21.76h23.476V74.29zm6.38-40.545h7.06v9.605l-.851 17.17 11.738-26.69h7.06v40.46h-7.06V63.92l.596-15.385-11.654 25.755h-6.889V33.745zm52.822 6.46h-8.166V74.29h-7.06V40.205h-8.251v-6.46h23.477v6.46zM390 74.29h-7.315l-2.042-7.14h-10.122l-2.041 7.14h-7.315l10.972-40.375h7.06L390 74.29zm-11.143-14.28l-3.317-14.96-3.318 14.96h6.635z" fill="#fff"/></symbol><symbol fill="none" viewBox="0 0 24 16" id="mail" xmlns="http://www.w3.org/2000/svg"><path d="M23.011 0H.99C.443 0 0 .459 0 1.025v13.95C0 15.541.443 16 .989 16H23.01c.546 0 .989-.459.989-1.025V1.025C24 .459 23.557 0 23.011 0zM.99.805h22.02c.093 0 .175.063.202.155L12 8.22.787.96A.213.213 0 0 1 .989.805zM.777 1.878l8.065 5.22L.777 13.73V1.878zM23.224 14.97c0 .121-.096.22-.213.22H.99a.216.216 0 0 1-.212-.22v-.215L9.54 7.576l2.252 1.46a.377.377 0 0 0 .414 0l2.252-1.46 8.765 7.18v.214zm0-1.24l-8.087-6.61 8.087-5.194V13.73z" fill="#F39228"/></symbol><symbol fill="none" viewBox="0 0 70 46" id="mail1" xmlns="http://www.w3.org/2000/svg"><path d="M67.116 0H2.884C1.29 0 0 1.32 0 2.946v40.108C0 44.68 1.291 46 2.884 46h64.232C68.709 46 70 44.68 70 43.054V2.946C70 1.32 68.709 0 67.116 0zM2.884 2.314h64.232a.62.62 0 0 1 .589.447L35 23.632 2.295 2.762a.62.62 0 0 1 .589-.448zm-.62 3.085L25.79 20.41 2.265 39.474V5.399zm65.471 37.64a.626.626 0 0 1-.619.632H2.884a.626.626 0 0 1-.62-.633v-.617l25.564-20.64 6.568 4.196c.369.238.839.238 1.208 0l6.568-4.196 25.563 20.64v.617zm0-3.564L44.15 20.47 67.735 5.538v33.937z" fill="#9DCB3B"/></symbol><symbol viewBox="0 0 73.168 73.168" id="menu" xmlns="http://www.w3.org/2000/svg"><path d="M4.242 14.425h64.684c2.344 0 4.242-1.933 4.242-4.324 0-2.385-1.898-4.325-4.242-4.325H4.242C1.898 5.776 0 7.716 0 10.101c0 2.392 1.898 4.324 4.242 4.324zm64.684 17.834H4.242C1.898 32.259 0 34.2 0 36.584c0 2.393 1.898 4.325 4.242 4.325h64.684c2.344 0 4.242-1.933 4.242-4.325 0-2.384-1.898-4.325-4.242-4.325zm0 26.483H4.242C1.898 58.742 0 60.683 0 63.067c0 2.393 1.898 4.325 4.242 4.325h64.684c2.344 0 4.242-1.935 4.242-4.325 0-2.384-1.898-4.325-4.242-4.325z"/></symbol><symbol viewBox="0 0 129 129" id="right-arrow" xmlns="http://www.w3.org/2000/svg"><path d="M40.4 121.3c-.8.8-1.8 1.2-2.9 1.2s-2.1-.4-2.9-1.2c-1.6-1.6-1.6-4.2 0-5.8l51-51-51-51c-1.6-1.6-1.6-4.2 0-5.8 1.6-1.6 4.2-1.6 5.8 0l53.9 53.9c1.6 1.6 1.6 4.2 0 5.8l-53.9 53.9z"/></symbol><symbol fill="none" viewBox="0 0 31 31" id="tel" xmlns="http://www.w3.org/2000/svg"><path d="M30.979 25.515a2.379 2.379 0 0 0-1.18-1.762l-7.648-4.404a2.4 2.4 0 0 0-2.89.383l-1.506 1.506c-.4.401-1.035.436-1.474.082a43.568 43.568 0 0 1-3.476-3.125 43.572 43.572 0 0 1-3.126-3.476 1.104 1.104 0 0 1 .083-1.474l1.506-1.507a2.4 2.4 0 0 0 .382-2.89L7.247 1.202A2.379 2.379 0 0 0 5.485.021a2.378 2.378 0 0 0-2.008.681l-2.27 2.27c-1.584 1.584-1.61 4.482-.072 8.16 1.48 3.536 4.239 7.43 7.771 10.962 3.533 3.532 7.426 6.292 10.962 7.77 1.81.758 3.432 1.136 4.8 1.136 1.412 0 2.556-.403 3.36-1.207l2.27-2.27c.531-.531.78-1.263.68-2.008zM21.65 20.22l7.648 4.403c.378.218.628.591.685 1.024a1.38 1.38 0 0 1-.26 1.008l-10.164-5.8.413-.413a1.394 1.394 0 0 1 1.678-.222zM5.353 1.017c.433.057.806.307 1.024.685L10.78 9.35a1.394 1.394 0 0 1-.222 1.678l-.379.38L4.346 1.276a1.375 1.375 0 0 1 1.007-.26zm21.965 28.066c-1.259 1.258-3.833 1.206-7.063-.145-3.418-1.43-7.196-4.112-10.639-7.554-3.442-3.442-6.125-7.22-7.554-10.64C.712 7.516.659 4.942 1.917 3.683l1.685-1.685 5.841 10.146-.391.391a2.107 2.107 0 0 0-.155 2.815 44.557 44.557 0 0 0 3.198 3.556 44.57 44.57 0 0 0 3.556 3.198c.84.676 2.05.61 2.814-.155l.358-.357L29 27.4l-1.683 1.683z" fill="#F39228"/></symbol><symbol fill="none" viewBox="0 0 70 70" id="tel1" xmlns="http://www.w3.org/2000/svg"><path d="M69.952 57.614a5.37 5.37 0 0 0-2.664-3.978L50.02 43.691a5.42 5.42 0 0 0-6.525.863l-3.401 3.402a2.493 2.493 0 0 1-3.33.186 98.335 98.335 0 0 1-7.848-7.058 98.358 98.358 0 0 1-7.058-7.847 2.49 2.49 0 0 1 .186-3.33l3.401-3.402a5.418 5.418 0 0 0 .864-6.525L16.365 2.71A5.37 5.37 0 0 0 12.386.049 5.37 5.37 0 0 0 7.85 1.586L2.725 6.71c-3.577 3.58-3.634 10.122-.161 18.427 3.339 7.985 9.57 16.776 17.547 24.752 7.976 7.976 16.767 14.208 24.752 17.547C48.951 69.146 52.612 70 55.703 70c3.188 0 5.77-.91 7.586-2.725l5.125-5.126a5.371 5.371 0 0 0 1.538-4.535zM48.888 45.658L66.156 55.6a3.119 3.119 0 0 1 1.547 2.31 3.114 3.114 0 0 1-.587 2.279L44.166 47.09l.932-.932a3.148 3.148 0 0 1 3.79-.501zm-36.8-43.362A3.12 3.12 0 0 1 14.4 3.843l9.943 17.27a3.147 3.147 0 0 1-.501 3.79l-.856.855L9.815 2.884a3.104 3.104 0 0 1 2.273-.588zm49.597 63.375c-2.842 2.842-8.654 2.723-15.947-.327-7.72-3.228-16.25-9.286-24.023-17.058-7.773-7.773-13.831-16.305-17.06-24.024-3.05-7.293-3.168-13.105-.326-15.947L8.134 4.51l13.19 22.91-.885.884a4.757 4.757 0 0 0-.349 6.356 100.622 100.622 0 0 0 7.221 8.029 100.693 100.693 0 0 0 8.03 7.221 4.757 4.757 0 0 0 6.355-.35l.807-.807L65.486 61.87l-3.8 3.801z" fill="#9DCB3B"/></symbol></svg>